# xmcd
#
# Track frame offsets: 
#        150
#        14545
#        28143
#        38545
#        53063
#        67295
#        81978
#        94165
#        108335
#        121290
#        136038
#        150363
#        169923
#        183090
#        195645
#        213513
#        241185
#        256083
#        270515
#        291233
#
# Disc length: 3966 seconds
#
# Revision: 0
# Processed by: cddbd v1.5.2PL0 Copyright (c) Steve Scherf et al.
# Submitted via: ExactAudioCopy v0.95a5
#
DISCID=110f7c14
DTITLE=Treat Her Like Gold and No Bad Days - Ron Thompson and Rollo Smith
DYEAR=1987
DGENRE=Blues
TTITLE0=It's So Cold
TTITLE1=Black Cat Bone
TTITLE2=It Ain't Your Business
TTITLE3=Treat Her Like Gold
TTITLE4=Rock Me Right
TTITLE5=Marie Marie
TTITLE6=I'm Shakin'
TTITLE7=I Ain't Got You
TTITLE8=Just Like The Devil
TTITLE9=T.L. Walkin'
TTITLE10=Basket Man
TTITLE11=I'm Ready
TTITLE12=Mailbox Orange
TTITLE13=Can't Do Nothin' Wrong
TTITLE14=No Bad Days
TTITLE15=Ultimate Shades
TTITLE16=My Walking Stick
TTITLE17=Going To Brownsville
TTITLE18=Long Distance Call
TTITLE19=That's That
EXTD=
EXTT0=
EXTT1=
EXTT2=
EXTT3=
EXTT4=
EXTT5=
EXTT6=
EXTT7=
EXTT8=
EXTT9=
EXTT10=
EXTT11=
EXTT12=
EXTT13=
EXTT14=
EXTT15=
EXTT16=
EXTT17=
EXTT18=
EXTT19=
PLAYORDER=
